<svg width="800" height="800" viewBox="0 0 800 800" fill="none" xmlns="http://www.w3.org/2000/svg">
<g clip-path="url(#clip0_71_201)">
<path d="M504.354 83.841C504.354 72.8318 495.434 63.9111 484.424 63.9111H273.292C262.283 63.9111 253.362 72.8318 253.362 83.841V210.561C253.362 221.57 262.283 230.491 273.292 230.491H464.495V286.789L273.292 478.052L224.047 428.785C219.872 424.611 214.031 422.509 208.183 423.024C202.302 423.548 196.955 426.651 193.586 431.498L3.56613 704.777C-0.669637 710.868 -1.16921 718.808 2.26936 725.385C5.70528 731.965 12.5133 736.083 19.9326 736.083H780.02C780.041 736.086 780.062 736.086 780.073 736.083C791.082 736.083 800.003 727.163 800.003 716.153C800.003 711.415 798.35 707.063 795.589 703.643L504.354 288.744V83.841ZM293.222 190.631V103.771H464.495V190.631H293.222ZM58.0625 696.226L212.705 473.824L259.195 520.335C262.934 524.072 268.004 526.174 273.292 526.174C278.578 526.174 283.648 524.072 287.387 520.335L481.746 325.912L741.68 696.229H58.0625V696.226Z" fill="url(#paint0_linear_71_201)"/>
</g>
<defs>
<linearGradient id="paint0_linear_71_201" x1="0.000488281" y1="399.998" x2="800.003" y2="399.998" gradientUnits="userSpaceOnUse">
<stop stop-color="#6F3AFA"/>
<stop offset="1" stop-color="#B473F3"/>
</linearGradient>
<clipPath id="clip0_71_201">
<rect width="800" height="800" fill="white"/>
</clipPath>
</defs>
</svg>
