    <svg width="238" height="238" viewBox="0 0 238 238" fill="none" xmlns="http://www.w3.org/2000/svg">
    <path d="M83.6 117.32C81.0933 115.987 79.84 113.893 79.84 111.04C79.84 109.6 80.2133 108.293 80.96 107.12C81.7067 105.92 82.84 104.973 84.36 104.28C85.88 103.56 87.7467 103.2 89.96 103.2C92.1733 103.2 94.0267 103.56 95.52 104.28C97.04 104.973 98.1733 105.92 98.92 107.12C99.6667 108.293 100.04 109.6 100.04 111.04C100.04 112.48 99.6933 113.733 99 114.8C98.3333 115.867 97.4267 116.707 96.28 117.32C97.72 118.013 98.8267 118.973 99.6 120.2C100.373 121.4 100.76 122.813 100.76 124.44C100.76 126.333 100.28 127.973 99.32 129.36C98.36 130.72 97.0533 131.76 95.4 132.48C93.7733 133.2 91.96 133.56 89.96 133.56C87.96 133.56 86.1333 133.2 84.48 132.48C82.8533 131.76 81.56 130.72 80.6 129.36C79.64 127.973 79.16 126.333 79.16 124.44C79.16 122.787 79.5467 121.36 80.32 120.16C81.0933 118.933 82.1867 117.987 83.6 117.32ZM93.4 112.08C93.4 110.987 93.08 110.147 92.44 109.56C91.8267 108.947 91 108.64 89.96 108.64C88.92 108.64 88.08 108.947 87.44 109.56C86.8267 110.173 86.52 111.027 86.52 112.12C86.52 113.16 86.84 113.987 87.48 114.6C88.12 115.187 88.9467 115.48 89.96 115.48C90.9733 115.48 91.8 115.173 92.44 114.56C93.08 113.947 93.4 113.12 93.4 112.08ZM89.96 120.28C88.7067 120.28 87.6933 120.627 86.92 121.32C86.1467 121.987 85.76 122.92 85.76 124.12C85.76 125.24 86.1333 126.16 86.88 126.88C87.6533 127.6 88.68 127.96 89.96 127.96C91.24 127.96 92.24 127.6 92.96 126.88C93.7067 126.16 94.08 125.24 94.08 124.12C94.08 122.947 93.6933 122.013 92.92 121.32C92.1733 120.627 91.1867 120.28 89.96 120.28ZM125.298 109.76H112.818V115.28C113.351 114.693 114.098 114.213 115.058 113.84C116.018 113.467 117.058 113.28 118.178 113.28C120.178 113.28 121.831 113.733 123.137 114.64C124.471 115.547 125.444 116.72 126.058 118.16C126.671 119.6 126.978 121.16 126.978 122.84C126.978 125.96 126.098 128.44 124.338 130.28C122.578 132.093 120.098 133 116.898 133C114.764 133 112.911 132.64 111.338 131.92C109.764 131.173 108.551 130.147 107.698 128.84C106.844 127.533 106.378 126.027 106.298 124.32H112.978C113.138 125.147 113.524 125.84 114.138 126.4C114.751 126.933 115.591 127.2 116.658 127.2C117.911 127.2 118.844 126.8 119.458 126C120.071 125.2 120.378 124.133 120.378 122.8C120.378 121.493 120.058 120.493 119.418 119.8C118.778 119.107 117.844 118.76 116.618 118.76C115.711 118.76 114.964 118.987 114.378 119.44C113.791 119.867 113.404 120.44 113.217 121.16H106.618V103.76H125.298V109.76ZM130.193 111.16C130.193 109 130.806 107.333 132.033 106.16C133.286 104.987 134.9 104.4 136.873 104.4C138.846 104.4 140.446 104.987 141.673 106.16C142.9 107.333 143.513 109 143.513 111.16C143.513 113.32 142.9 114.987 141.673 116.16C140.446 117.333 138.846 117.92 136.873 117.92C134.9 117.92 133.286 117.333 132.033 116.16C130.806 114.987 130.193 113.32 130.193 111.16ZM157.353 104.84L141.953 133H135.353L150.753 104.84H157.353ZM136.833 108.4C135.553 108.4 134.913 109.32 134.913 111.16C134.913 112.973 135.553 113.88 136.833 113.88C137.446 113.88 137.926 113.653 138.273 113.2C138.62 112.747 138.793 112.067 138.793 111.16C138.793 109.32 138.14 108.4 136.833 108.4ZM149.233 126.68C149.233 124.52 149.846 122.853 151.073 121.68C152.3 120.507 153.9 119.92 155.873 119.92C157.846 119.92 159.446 120.507 160.673 121.68C161.9 122.853 162.513 124.52 162.513 126.68C162.513 128.84 161.9 130.507 160.673 131.68C159.446 132.853 157.846 133.44 155.873 133.44C153.9 133.44 152.3 132.853 151.073 131.68C149.846 130.507 149.233 128.84 149.233 126.68ZM155.833 123.92C155.22 123.92 154.74 124.147 154.393 124.6C154.073 125.053 153.913 125.747 153.913 126.68C153.913 128.493 154.553 129.4 155.833 129.4C156.446 129.4 156.926 129.173 157.273 128.72C157.62 128.267 157.793 127.587 157.793 126.68C157.793 125.773 157.62 125.093 157.273 124.64C156.926 124.16 156.446 123.92 155.833 123.92Z" fill="#844BF8"/>
    <circle cx="119" cy="119" r="109" stroke="#D9D9D9" stroke-width="12"/>
    <g filter="url(#filter0_d_74_6)">
    <mask id="path-3-inside-1_74_6" fill="white">
    <path d="M119 9.75C119 6.57436 121.576 3.985 124.748 4.14369C147.12 5.26302 168.726 12.8968 186.875 26.167C206.575 40.5706 221.182 60.8678 228.584 84.1223C235.985 107.377 235.797 132.383 228.046 155.523C220.295 178.664 205.384 198.739 185.47 212.844C165.555 226.95 141.67 234.354 117.269 233.987C92.8676 233.62 69.2159 225.499 49.7351 210.801C30.2542 196.102 15.9543 175.587 8.90386 152.224C2.40828 130.699 2.37638 107.785 8.74427 86.3092C9.64704 83.2646 12.9446 81.6934 15.9403 82.7472V82.7472C18.936 83.801 20.4938 87.0803 19.6079 90.1299C14.0398 109.299 14.123 129.714 19.9135 148.902C26.2589 169.929 39.1288 188.392 56.6616 201.621C74.1943 214.849 95.4809 222.158 117.442 222.488C139.403 222.819 160.9 216.155 178.823 203.46C196.746 190.765 210.166 172.697 217.141 151.871C224.117 131.045 224.286 108.539 217.625 87.6101C210.964 66.681 197.818 48.4136 180.088 35.4503C163.908 23.6207 144.678 16.7678 124.747 15.6596C121.577 15.4833 119 12.9256 119 9.75V9.75Z"/>
    </mask>
    <path d="M119 9.75C119 6.57436 121.576 3.985 124.748 4.14369C147.12 5.26302 168.726 12.8968 186.875 26.167C206.575 40.5706 221.182 60.8678 228.584 84.1223C235.985 107.377 235.797 132.383 228.046 155.523C220.295 178.664 205.384 198.739 185.47 212.844C165.555 226.95 141.67 234.354 117.269 233.987C92.8676 233.62 69.2159 225.499 49.7351 210.801C30.2542 196.102 15.9543 175.587 8.90386 152.224C2.40828 130.699 2.37638 107.785 8.74427 86.3092C9.64704 83.2646 12.9446 81.6934 15.9403 82.7472V82.7472C18.936 83.801 20.4938 87.0803 19.6079 90.1299C14.0398 109.299 14.123 129.714 19.9135 148.902C26.2589 169.929 39.1288 188.392 56.6616 201.621C74.1943 214.849 95.4809 222.158 117.442 222.488C139.403 222.819 160.9 216.155 178.823 203.46C196.746 190.765 210.166 172.697 217.141 151.871C224.117 131.045 224.286 108.539 217.625 87.6101C210.964 66.681 197.818 48.4136 180.088 35.4503C163.908 23.6207 144.678 16.7678 124.747 15.6596C121.577 15.4833 119 12.9256 119 9.75V9.75Z" stroke="url(#paint0_linear_74_6)" stroke-width="24" stroke-linejoin="round" shape-rendering="crispEdges" mask="url(#path-3-inside-1_74_6)"/>
    </g>
    <defs>
    <filter id="filter0_d_74_6" x="0" y="0.136719" width="238" height="237.863" filterUnits="userSpaceOnUse" color-interpolation-filters="sRGB">
    <feFlood flood-opacity="0" result="BackgroundImageFix"/>
    <feColorMatrix in="SourceAlpha" type="matrix" values="0 0 0 0 0 0 0 0 0 0 0 0 0 0 0 0 0 0 127 0" result="hardAlpha"/>
    <feOffset/>
    <feGaussianBlur stdDeviation="2"/>
    <feComposite in2="hardAlpha" operator="out"/>
    <feColorMatrix type="matrix" values="0 0 0 0 0 0 0 0 0 0 0 0 0 0 0 0 0 0 0.5 0"/>
    <feBlend mode="normal" in2="BackgroundImageFix" result="effect1_dropShadow_74_6"/>
    <feBlend mode="normal" in="SourceGraphic" in2="effect1_dropShadow_74_6" result="shape"/>
    </filter>
    <linearGradient id="paint0_linear_74_6" x1="4" y1="119" x2="234" y2="119" gradientUnits="userSpaceOnUse">
    <stop stop-color="#6F3AFA"/>
    <stop offset="1" stop-color="#B473F3"/>
    </linearGradient>
    </defs>
    </svg>
